G04 EAGLE Gerber RS-274X export*
G75*
%MOMM*%
%FSLAX34Y34*%
%LPD*%
%INSoldermask Top*%
%IPPOS*%
%AMOC8*
5,1,8,0,0,1.08239X$1,22.5*%
G01*
%ADD10C,4.203191*%
%ADD11C,1.727200*%


D10*
X50800Y50800D03*
X723900Y50800D03*
X50800Y406400D03*
X723900Y406400D03*
D11*
X134620Y330200D02*
X119380Y330200D01*
X119380Y355600D02*
X134620Y355600D01*
X134620Y381000D02*
X119380Y381000D01*
X119380Y304800D02*
X134620Y304800D01*
X134620Y279400D02*
X119380Y279400D01*
X119380Y254000D02*
X134620Y254000D01*
X134620Y228600D02*
X119380Y228600D01*
X119380Y203200D02*
X134620Y203200D01*
X134620Y177800D02*
X119380Y177800D01*
X119380Y152400D02*
X134620Y152400D01*
X134620Y127000D02*
X119380Y127000D01*
X119380Y101600D02*
X134620Y101600D01*
X134620Y76200D02*
X119380Y76200D01*
X119380Y50800D02*
X134620Y50800D01*
X271780Y330200D02*
X287020Y330200D01*
X287020Y355600D02*
X271780Y355600D01*
X271780Y381000D02*
X287020Y381000D01*
X287020Y304800D02*
X271780Y304800D01*
X271780Y279400D02*
X287020Y279400D01*
X287020Y254000D02*
X271780Y254000D01*
X271780Y228600D02*
X287020Y228600D01*
X287020Y203200D02*
X271780Y203200D01*
X271780Y177800D02*
X287020Y177800D01*
X287020Y152400D02*
X271780Y152400D01*
X271780Y127000D02*
X287020Y127000D01*
X287020Y101600D02*
X271780Y101600D01*
X271780Y76200D02*
X287020Y76200D01*
X287020Y50800D02*
X271780Y50800D01*
X424180Y279400D02*
X439420Y279400D01*
X439420Y304800D02*
X424180Y304800D01*
X424180Y330200D02*
X439420Y330200D01*
X439420Y254000D02*
X424180Y254000D01*
X424180Y228600D02*
X439420Y228600D01*
X439420Y203200D02*
X424180Y203200D01*
X424180Y177800D02*
X439420Y177800D01*
X439420Y152400D02*
X424180Y152400D01*
X601980Y279400D02*
X617220Y279400D01*
X617220Y304800D02*
X601980Y304800D01*
X601980Y330200D02*
X617220Y330200D01*
X617220Y254000D02*
X601980Y254000D01*
X716280Y279400D02*
X731520Y279400D01*
X731520Y304800D02*
X716280Y304800D01*
X716280Y330200D02*
X731520Y330200D01*
X731520Y254000D02*
X716280Y254000D01*
M02*
