M48
;GenerationSoftware,Autodesk,EAGLE,9.6.2*%
;CreationDate,2024-10-02T16:14:14Z*%
FMAT,2
ICI,OFF
METRIC,TZ,000.000
T2C1.016
T1C4.000
%
G90
M71
T1
X5080Y5080
X72390Y5080
X5080Y40640
X72390Y40640
T2
X12700Y33020
X12700Y35560
X12700Y38100
X12700Y30480
X12700Y27940
X12700Y25400
X12700Y22860
X12700Y20320
X12700Y17780
X12700Y15240
X12700Y12700
X12700Y10160
X12700Y7620
X12700Y5080
X27940Y33020
X27940Y35560
X27940Y38100
X27940Y30480
X27940Y27940
X27940Y25400
X27940Y22860
X27940Y20320
X27940Y17780
X27940Y15240
X27940Y12700
X27940Y10160
X27940Y7620
X27940Y5080
X43180Y27940
X43180Y30480
X43180Y33020
X43180Y25400
X43180Y22860
X43180Y20320
X43180Y17780
X43180Y15240
X60960Y27940
X60960Y30480
X60960Y33020
X60960Y25400
X72390Y27940
X72390Y30480
X72390Y33020
X72390Y25400
M30