<?xml version="1.0" encoding="utf-8"?>
<!DOCTYPE svg PUBLIC "-//W3C//DTD SVG 1.0//EN" "http://www.w3.org/TR/2001/REC-SVG-20010904/DTD/svg10.dtd">
<svg version="1.0" xmlns="http://www.w3.org/2000/svg" width="211px" height="171px" viewBox="0 0 211 171" preserveAspectRatio="xMidYMid meet">
 <g fill="#063157">
  <path d="M88.6 148.6 c-3.8 -7.7 -4.6 -12.6 -2.2 -12.6 2.5 0 2.7 -3.4 0.5 -9.6 -1.2 -3.6 -2.1 -8.8 -2.2 -13.4 -0.2 -6.4 -0.6 -8.1 -3 -11.5 -2.1 -3.1 -2.7 -5.1 -2.7 -9.3 0 -5.8 -1.3 -9.2 -3.5 -9.2 -0.8 0 -1.8 -0.6 -2.2 -1.3 -0.4 -0.7 -3.6 -3.4 -7 -6.1 -5.9 -4.4 -8 -7.6 -5 -7.6 0.6 0 6.2 2.5 12.2 5.5 10.1 5 11.3 5.4 14.9 4.5 7.2 -1.6 12.9 0.5 18.9 6.9 2.1 2.3 4.5 4.1 5.3 4.1 2.6 0 10.8 4.7 14.7 8.5 2 2 5.3 6.8 7.3 10.6 3.3 6.6 3.5 7.7 3.6 16.8 0.1 11.5 -0.6 15.3 -3.8 20.3 -4.2 6.5 -12.5 9.2 -32 10.3 l-10.1 0.5 -3.7 -7.4z m11.2 -60.7 c-0.2 -0.6 -0.8 -1 -1.3 -1 -0.5 0 -1.1 0.4 -1.3 1 -0.2 0.6 0.4 1.1 1.3 1.1 0.9 0 1.5 -0.5 1.3 -1.1z"/>
  <path d="M57.5 153.6 c-18.7 -2.8 -35.6 -18.4 -39.5 -36.4 -1.9 -9 -0.9 -23.2 2.1 -30.2 1.3 -3 2.7 -5.6 3.1 -5.8 0.4 -0.2 0.8 -1 0.8 -1.7 0 -0.7 2.9 -4.3 6.5 -8 3.6 -3.7 6.5 -7.5 6.5 -8.5 0 -2 3.2 -12 5.9 -18.3 2.2 -5.1 13.5 -17.5 19 -20.9 2 -1.2 4.2 -2.8 4.9 -3.5 0.7 -0.7 3.2 -1.7 5.5 -2.3 2.3 -0.6 6.5 -1.8 9.4 -2.6 7 -1.9 12.5 -1.8 22.2 0.7 9.9 2.5 18.5 7.3 26.2 14.6 l5.6 5.3 8.5 0 c7.6 0 9.2 0.3 14.8 3.2 11.3 5.9 17.5 15.4 18.7 28.7 0.5 5.6 0.9 6.2 4.3 8.6 11.1 7.7 18.1 24.2 16.5 38.9 -1.3 12.9 -11.9 27.8 -24.3 34.5 -3.5 1.9 -18 5.1 -22.9 5.1 -0.9 0 -1.3 -2.2 -1.3 -7.5 l0 -7.5 5.6 0 c7.3 0 16.6 -4.4 21.1 -9.9 9.5 -11.5 9.6 -27.5 0.4 -38.3 -3.9 -4.6 -11.5 -9.8 -14.2 -9.8 -2.7 0 -3.1 -1.6 -1.3 -5.1 1.1 -2.3 1.5 -5 1.2 -9.4 -0.4 -7.3 -2.9 -11 -9.9 -14.9 -5.7 -3.2 -11 -3.3 -17.9 -0.6 -2.8 1.1 -5.3 2 -5.5 2 -0.3 0 -1.4 -1.9 -2.6 -4.2 -3 -5.9 -11.4 -13.8 -18.4 -17.3 -5.2 -2.6 -7.3 -3 -15.9 -3.3 -9.8 -0.3 -10.1 -0.3 -17.5 3.5 -7.2 3.6 -12.7 8.5 -17.8 15.7 -2 2.8 -4.2 10.9 -5.8 21.7 -0.4 2.6 -1.3 4 -3.3 5 -4.7 2.4 -11.4 10.2 -14.4 16.6 -5.8 12.7 -2.7 27.9 7.7 38.7 5.7 5.8 12.4 8.8 22 9.6 l6 0.5 0 6.3 c0 4.5 -0.5 6.6 -1.5 7.2 -0.8 0.5 -1.7 0.9 -2 0.9 -0.3 -0.1 -4.1 -0.7 -8.5 -1.3z"/>
 </g>
</svg>