<?xml version="1.0" standalone="no"?>
<!DOCTYPE svg PUBLIC "-//W3C//DTD SVG 20010904//EN"
 "http://www.w3.org/TR/2001/REC-SVG-20010904/DTD/svg10.dtd">
<svg version="1.0" xmlns="http://www.w3.org/2000/svg"
 width="1024.000000pt" height="400.000000pt" viewBox="0 0 1024.000000 400.000000"
 preserveAspectRatio="xMidYMid meet">

<g transform="translate(0.000000,400.000000) scale(0.100000,-0.100000)"
fill="#000000" stroke="none">
<path d="M1980 3121 c-19 -5 -63 -14 -97 -20 -141 -26 -287 -107 -407 -226
-104 -103 -123 -130 -183 -255 -38 -80 -57 -149 -68 -246 -6 -54 -11 -62 -41
-84 -74 -50 -171 -167 -218 -263 -66 -134 -81 -198 -81 -347 0 -146 15 -214
74 -335 44 -89 68 -122 156 -211 85 -88 184 -147 310 -188 56 -19 230 -40 245
-31 6 3 10 44 10 91 l0 84 -58 0 c-65 0 -187 31 -247 63 -139 74 -241 198
-294 355 -24 69 -29 231 -10 312 29 129 133 275 250 351 l66 44 7 92 c12 170
68 301 180 423 242 263 644 291 919 65 70 -58 141 -144 176 -213 12 -24 25
-42 29 -40 110 58 128 63 212 63 71 0 94 -4 141 -26 164 -77 242 -269 175
-431 l-23 -57 48 -16 c190 -63 339 -271 339 -474 0 -276 -228 -510 -497 -511
l-63 0 0 -91 0 -91 86 7 c213 18 378 104 505 265 65 81 129 227 129 291 0 15
5 31 10 34 6 3 10 44 10 90 0 46 -4 87 -10 90 -5 3 -10 19 -10 35 0 34 -42
155 -72 208 -49 85 -129 172 -215 232 l-41 30 -1 92 c-2 231 -144 414 -376
485 -35 11 -82 14 -166 11 l-117 -3 -79 80 c-168 172 -355 256 -598 270 -38 2
-86 0 -105 -4z"/>
<path d="M5520 2605 l0 -375 70 0 70 0 0 83 c0 75 2 86 24 106 l24 22 55 -84
c30 -47 60 -94 66 -106 10 -19 21 -21 91 -21 44 0 80 2 80 5 0 4 -42 68 -93
143 -52 75 -97 142 -101 149 -4 7 31 55 84 115 49 57 90 107 90 111 0 4 -37 7
-82 5 l-81 -3 -79 -93 -78 -92 0 205 0 205 -70 0 -70 0 0 -375z"/>
<path d="M4110 2585 l0 -355 77 0 76 0 -7 250 c-4 138 -5 250 -3 250 2 0 44
-112 93 -250 l89 -250 51 0 52 0 87 243 c48 133 91 249 97 257 6 10 7 -9 4
-55 -3 -38 -9 -154 -12 -257 l-7 -188 77 0 76 0 0 355 0 356 -96 -3 -96 -3
-88 -248 c-48 -136 -89 -249 -91 -252 -3 -2 -45 111 -94 251 l-90 254 -97 0
-98 0 0 -355z"/>
<path d="M5133 2760 c-51 -11 -91 -31 -120 -62 -20 -22 -43 -68 -43 -89 0 -5
32 -9 70 -9 65 0 71 2 79 24 11 27 29 36 75 36 40 0 62 -22 71 -72 l7 -38 -66
0 c-96 0 -152 -17 -196 -59 -82 -78 -60 -205 44 -252 56 -26 113 -24 170 5 47
24 48 24 53 5 5 -17 15 -19 80 -19 68 0 74 2 67 18 -4 9 -10 103 -14 207 -3
118 -10 198 -17 211 -24 42 -81 82 -133 93 -57 12 -67 12 -127 1z m137 -332
c0 -24 -6 -50 -13 -59 -32 -42 -104 -52 -137 -19 -24 24 -25 48 -4 78 21 30
48 41 107 41 l47 1 0 -42z"/>
<path d="M6192 2756 c-97 -32 -160 -120 -169 -239 -14 -174 95 -297 263 -297
57 0 144 33 176 68 l26 27 -33 40 -34 40 -23 -22 c-34 -31 -101 -47 -143 -33
-39 13 -85 62 -85 91 0 18 9 19 166 19 l167 0 -5 78 c-3 51 -12 91 -26 118
-22 43 -71 90 -107 104 -44 17 -130 20 -173 6z m143 -132 c15 -16 25 -39 25
-55 l0 -29 -95 0 c-105 0 -109 3 -80 60 19 37 41 49 88 50 28 0 44 -7 62 -26z"/>
<path d="M6793 2759 c-17 -5 -41 -21 -52 -35 l-20 -25 -3 28 c-3 27 -5 28 -70
31 l-68 3 0 -266 0 -265 70 0 70 0 0 169 c0 93 3 177 6 186 10 25 58 45 109
45 l45 0 0 64 c0 78 -11 87 -87 65z"/>
<path d="M7073 2758 c-24 -5 -59 -24 -84 -46 -38 -34 -42 -43 -46 -92 -7 -95
38 -139 178 -175 81 -21 109 -39 109 -70 0 -73 -142 -73 -170 1 -9 22 -15 24
-75 24 -72 0 -76 -5 -51 -63 68 -163 400 -148 432 19 18 97 -40 150 -218 199
-68 18 -88 43 -64 79 20 32 58 40 101 22 24 -10 35 -21 35 -35 0 -19 6 -21 76
-21 l76 0 -7 28 c-16 65 -76 117 -155 132 -61 12 -79 11 -137 -2z"/>
<path d="M7685 2761 c-17 -4 -43 -16 -58 -26 -28 -18 -28 -18 -34 3 -5 20 -12
22 -69 22 l-64 0 0 -365 0 -365 70 0 70 0 0 119 0 118 47 -23 c83 -43 164 -26
226 46 42 50 61 113 61 205 0 121 -41 213 -112 249 -36 18 -100 26 -137 17z
m57 -122 c30 -16 48 -70 48 -144 0 -70 -16 -121 -45 -145 -27 -22 -92 -17
-121 10 -23 22 -24 30 -24 136 0 110 1 113 26 133 29 23 83 28 116 10z"/>
<path d="M8172 2760 c-80 -17 -132 -61 -152 -129 l-9 -31 75 0 c57 0 74 3 74
14 0 26 30 46 70 46 45 0 80 -35 80 -80 0 -27 0 -27 -89 -32 -108 -6 -164 -32
-198 -93 -27 -49 -29 -87 -4 -141 28 -61 79 -89 163 -89 53 0 72 4 97 23 37
27 37 27 44 2 5 -18 14 -20 77 -20 71 0 72 1 65 23 -4 12 -10 105 -14 207 -7
211 -14 233 -84 274 -48 28 -131 39 -195 26z m138 -338 c0 -56 -17 -78 -68
-88 -70 -14 -116 29 -90 84 17 35 53 52 111 52 l47 0 0 -48z"/>
<path d="M8708 2756 c-106 -29 -160 -107 -166 -241 -5 -96 8 -148 48 -203 43
-60 99 -86 185 -87 115 0 202 60 221 153 l7 32 -67 0 c-60 0 -67 -2 -75 -23
-13 -34 -37 -49 -80 -51 -69 -1 -101 50 -101 159 0 110 30 155 103 155 36 0
72 -30 79 -65 3 -17 12 -20 71 -23 64 -3 67 -2 67 20 -1 74 -78 159 -160 177
-62 13 -72 13 -132 -3z"/>
<path d="M9232 2756 c-97 -32 -160 -120 -169 -239 -14 -174 95 -297 263 -297
57 0 144 33 176 68 l26 27 -33 40 -34 40 -23 -22 c-34 -31 -101 -47 -143 -33
-39 13 -85 62 -85 91 0 18 9 19 166 19 l167 0 -5 78 c-3 51 -12 91 -26 118
-22 43 -71 90 -107 104 -44 17 -130 20 -173 6z m143 -132 c15 -16 25 -39 25
-55 l0 -29 -95 0 c-105 0 -109 3 -80 60 19 37 41 49 88 50 28 0 44 -7 62 -26z"/>
<path d="M1592 2246 c9 -7 82 -64 162 -127 l145 -114 -6 -45 c-3 -25 -7 -52
-8 -61 -7 -38 19 -112 57 -162 l40 -52 -6 -80 c-5 -84 2 -124 48 -270 14 -44
26 -97 26 -117 0 -33 -4 -38 -27 -44 -57 -13 -59 -44 -9 -118 10 -15 28 -56
40 -90 28 -82 52 -94 133 -68 47 15 79 18 169 14 100 -4 120 -1 200 23 90 28
137 53 164 89 33 46 73 189 78 283 4 86 -14 212 -38 262 -65 139 -89 177 -150
233 -46 42 -88 70 -144 94 -44 19 -86 34 -94 34 -8 0 -42 29 -76 64 -33 35
-76 71 -94 81 -51 25 -161 31 -204 11 l-36 -17 -103 54 c-244 128 -317 162
-267 123z m617 -283 c12 -23 -4 -53 -29 -53 -25 0 -33 15 -26 46 7 28 40 33
55 7z"/>
<path d="M4120 1385 l0 -355 75 0 75 0 0 355 0 355 -75 0 -75 0 0 -355z"/>
<path d="M4930 1680 l0 -60 105 0 105 0 0 -295 0 -295 75 0 75 0 0 295 0 294
108 3 107 3 3 58 3 57 -291 0 -290 0 0 -60z"/>
<path d="M4548 1556 c-67 -18 -112 -57 -145 -123 -24 -50 -28 -69 -27 -138 1
-120 45 -204 127 -247 61 -32 174 -32 240 1 55 27 102 84 118 143 14 53 13
157 -2 207 -15 51 -70 116 -118 140 -50 26 -135 33 -193 17z m139 -128 c35
-39 43 -64 43 -133 0 -85 -21 -132 -68 -152 -27 -11 -41 -12 -69 -2 -52 17
-73 59 -73 146 0 118 29 162 106 163 29 0 46 -6 61 -22z"/>
</g>
</svg>
